{"title":"One of Us (2016) (miniseries) x264 RB58","uid":15825107,"size":2685040610,"categoryP":"video","categoryS":"tv_shows","magnet":"?xt=urn:btih:fa0ba877d9050e853b4d2635444691891fd067a6&amp;dn=One+of+Us+%282016%29+%28miniseries%29+x264+RB58&amp;tr=udp%3A%2F%2Ftracker.leechers-paradise.org%3A6969&amp;tr=udp%3A%2F%2Fzer0day.ch%3A1337&amp;tr=udp%3A%2F%2Fopen.demonii.com%3A1337&amp;tr=udp%3A%2F%2Ftracker.coppersurfer.tk%3A6969&amp;tr=udp%3A%2F%2Fexodus.desync.com%3A6969","seeders":20,"leechers":5,"uploader":"RedBaron58","files":4,"time":1473820697,"description":"One of Us (2016) (miniseries) x264 mp4\r\n  \nhttp://www.imdb.com/title/tt5149528/\r\n\r\n\r\nThank you for your kind comments and feedback on my other torrents, your feedback is welcome.\r\n\r\n\r\nAbout the Series:\r\nChildhood sweethearts, Adam Elliot and Grace Douglas, who are brutally murdered after returning \r\nhome from their honeymoon. Their families and neighbours in the remote Scottish Highland village \r\nof Braeston are devastated, but things take an even darker turn when a badly injured man \r\narrives at their doorstep after his car comes off the road.\r\n\r\nI hope you enjoy.\r\n\r\nTechnical: (All episodes are encoded to the same settings)\r\n\r\nGeneral\r\nComplete name                            : I:One of Us S01One of Us S01E01 - The Storm x264 RB58.mp4\r\nFormat                                   : MPEG-4\r\nFormat profile                           : Base Media\r\nCodec ID                                 : isom\r\nFile size                                : 639 MiB\r\nDuration                                 : 58mn 35s\r\nOverall bit rate                         : 1 526 Kbps\r\nWriting application                      : Lavf54.63.104\r\n\r\nVideo\r\nID                                       : 1\r\nFormat                                   : AVC\r\nFormat/Info                              : Advanced Video Codec\r\nFormat profile                           :   \r\nFormat settings, CABAC                   : Yes\r\nFormat settings, ReFrames                : 4 frames\r\nCodec ID                                 : avc1\r\nCodec ID/Info                            : Advanced Video Coding\r\nDuration                                 : 58mn 35s\r\nBit rate                                 : 1 400 Kbps\r\nWidth                                    : 832 pixels\r\nHeight                                   : 468 pixels\r\nDisplay aspect ratio                     : 16:9\r\nFrame rate mode                          : Constant\r\nFrame rate                               : 25.000 fps\r\nColor space                              : YUV\r\nChroma subsampling                       : 4:2:0\r\nBit depth                                : 8 bits\r\nScan type                                : Progressive\r\nBits/(Pixel*Frame)                       : 0.144\r\nStream size                              : 586 MiB (92%)\r\nWriting library                          : x264 core 123 r2189 35cf912\r\nEncoding settings                        : cabac=1 / ref=3 / deblock=1:0:0\r\n\r\nAudio\r\nID                                       : 2\r\nFormat                                   : AAC\r\nFormat/Info                              : Advanced Audio Codec\r\nFormat profile                           : LC\r\nCodec ID                                 : 40\r\nDuration                                 : 58mn 35s\r\nBit rate mode                            : Constant\r\nBit rate                                 : 119 Kbps\r\nChannel(s)                               : 2 channels\r\nChannel positions                        : Front: L R\r\nSampling rate                            : 48.0 KHz\r\nCompression mode                         : Lossy\r\nStream size                              : 49.7 MiB (8%)","torrent":{"xt":"urn:btih:fa0ba877d9050e853b4d2635444691891fd067a6","amp;dn":"One+of+Us+%282016%29+%28miniseries%29+x264+RB58","amp;tr":["udp%3A%2F%2Ftracker.leechers-paradise.org%3A6969","udp%3A%2F%2Fzer0day.ch%3A1337","udp%3A%2F%2Fopen.demonii.com%3A1337","udp%3A%2F%2Ftracker.coppersurfer.tk%3A6969","udp%3A%2F%2Fexodus.desync.com%3A6969"],"infoHash":"fa0ba877d9050e853b4d2635444691891fd067a6","infoHashBuffer":{"type":"Buffer","data":[250,11,168,119,217,5,14,133,59,77,38,53,68,70,145,137,31,208,103,166]},"announce":[],"urlList":[]}}